<?xml version="1.0" encoding="UTF-8"?>
<svg width="258px" height="410px" viewBox="0 0 258 410" version="1.1" xmlns="http://www.w3.org/2000/svg" xmlns:xlink="http://www.w3.org/1999/xlink">
    <!-- Generator: Sketch 43.2 (39069) - http://www.bohemiancoding.com/sketch -->
    <title>marker</title>
    <desc>Created with Sketch.</desc>
    <defs>
        <linearGradient x1="50%" y1="0%" x2="50%" y2="100%" id="linearGradient-1">
            <stop stop-color="#30A370" offset="0%"></stop>
            <stop stop-color="#30A370" offset="100%"></stop>
        </linearGradient>
    </defs>
    <g id="Page-1" stroke="none" stroke-width="1" fill="none" fill-rule="evenodd">
        <g id="marker" style="mix-blend-mode: darken;">
            <path d="M129,8.92683619e-15 C85.0153526,-0.0144661149 44.1040742,22.5558026 20.6584542,59.7707501 C-2.78716574,96.9856976 -5.48274559,143.632065 13.52,183.3 C13.99,184.25 129,409.61 129,409.61 L243.07,186.11 C263.284943,146.426666 261.420211,99.0885754 238.146356,61.1183429 C214.872501,23.1481105 173.535501,0.00454741792 129,0.01 L129,0.01 L129,8.92683619e-15 Z" id="Shape" fill="url(#linearGradient-1)"></path>
            <circle id="Oval" stroke="#FFFFFF" stroke-width="11" cx="128.75" cy="125.15" r="95.44"></circle>
            <g id="groceries" transform="translate(76.000000, 58.000000)" fill-rule="nonzero" fill="#FFFFFF">
                <path d="M71.4414488,59.9926642 C71.6900714,60.0766998 71.9457306,60.1163832 72.1943533,60.1163832 C73.1724255,60.1163832 74.0848238,59.504791 74.4155388,58.5313788 C75.1496793,56.3884715 77.4975217,55.2376509 79.6506879,55.9636249 C84.2525528,57.5136145 89.2742616,55.0555738 90.8340171,50.4733002 C91.2515155,49.2547843 90.5947764,47.9265552 89.3680815,47.511046 C88.1366957,47.097871 86.8091444,47.7514811 86.391646,48.9723314 C85.6598509,51.117573 83.3120085,52.2683936 81.1564969,51.5400852 C76.5616685,49.9970986 71.5352686,52.4504707 69.9731677,57.0304099 C69.5580148,58.2512602 70.2147539,59.5771549 71.4414488,59.9926642 Z" id="Shape"></path>
                <path d="M76.9908944,43.7271105 C77.2395171,43.811146 77.4951762,43.8508295 77.7437989,43.8508295 C78.7218711,43.8508295 79.6342694,43.2392372 79.9649845,42.2658251 C80.3191545,41.2270519 81.057986,40.3866961 82.0477857,39.9011572 C83.0375854,39.4156182 84.1563874,39.3455886 85.2001335,39.6980712 C89.8019984,41.2480608 94.8213618,38.79002 96.3834627,34.2054122 C96.8009612,32.9868962 96.1418766,31.6586672 94.9175272,31.2431579 C93.6908323,30.82298 92.3585901,31.483593 91.9434371,32.7044433 C91.2116421,34.8520193 88.8684907,36.0028399 86.708288,35.2745315 C84.475375,34.5205456 82.0853137,34.6746108 79.9743665,35.713384 C77.8634193,36.7498228 76.2825543,38.5449162 75.5249589,40.7648562 C75.1074604,41.9857064 75.7641995,43.3116012 76.9908944,43.7271105 Z" id="Shape"></path>
                <path d="M82.5379946,27.4615567 C82.7889627,27.5455923 83.0422764,27.5852758 83.2932446,27.5852758 C84.2713168,27.5852758 85.1837151,26.9736835 85.5144301,26.0002713 C86.0538944,24.4176012 87.7919076,23.5655738 89.379809,24.1024678 C91.3382989,24.7630808 93.4375186,24.6276901 95.2928067,23.719639 C97.1457492,22.8092535 98.5319379,21.2359207 99.198059,19.286762 C99.6155575,18.0682461 98.9588183,16.740017 97.7321234,16.3245078 C96.5007376,15.9066642 95.1731863,16.5649429 94.7556879,17.7857932 C94.4929922,18.553785 93.9464915,19.1747146 93.2170419,19.5318658 C92.4875924,19.889017 91.6619775,19.9427064 90.8879635,19.6789281 C86.8490179,18.3226872 82.4418292,20.4796004 81.072059,24.4969681 C80.6545606,25.7201527 81.3112997,27.0460474 82.5379946,27.4615567 Z" id="Shape"></path>
                <path d="M98.1848043,59.3437228 C102.849998,44.2640044 105.406589,29.487748 105.772487,15.418791 C105.878034,11.385083 104.111875,6.80280949 101.381717,4.01329503 C98.1238214,0.686886583 93.6931778,0.00759896219 89.3211716,2.24854781 C82.3151724,5.84573758 77.305191,16.4272179 73.2803183,24.9334863 C73.0481141,25.4236938 72.8206009,25.9022298 72.5954332,26.3760971 C71.7064899,22.3073744 69.0044775,18.8269007 65.1625536,17.0107984 C64.2571918,12.6782973 60.8046203,9.28419348 56.4654511,8.40415419 C56.4185411,8.16138473 56.3599037,7.92328391 56.2871933,7.68284878 C55.393559,4.6435619 52.6962376,2.35592661 49.5814177,1.98710378 C47.7800761,1.76767754 46.0725543,2.14583766 44.5948913,3.00486805 C43.328323,2.30457153 41.9069519,1.93108006 40.4480528,1.93108006 C36.3692337,1.93108006 32.9424627,4.76261231 32.0488284,8.55121646 C27.5900388,9.76039511 24.3204161,13.8337865 24.2852337,18.567791 C19.1978509,19.8750111 15.4919658,24.4502817 15.4919658,29.8915856 C15.4919658,31.3341964 15.7640435,32.7628013 16.2870893,34.109705 C14.9665745,35.7320586 14.2347795,37.7629185 14.2347795,39.8941542 C14.2347795,41.1733625 14.4998207,42.4058844 14.9994115,43.5450334 C12.6562601,41.0006227 9.35849146,38.920742 5.65495186,39.0561327 C4.36023758,39.0981505 3.34229193,40.1742728 3.38216537,41.4628184 C3.42203882,42.7256864 4.46343944,43.7247761 5.72531677,43.7247761 C5.80506366,43.7271105 5.87777407,43.7201075 5.95282997,43.7201075 C8.15056056,43.7201075 10.1934884,45.167387 11.6805334,46.8480986 C7.96057531,47.9148836 3.47598525,49.651619 1.38380202,53.5779481 C0.126615683,55.9379474 -0.0211506211,58.8348406 0.806809783,62.1495775 C0.389311335,62.8288651 0.185253106,63.6248688 0.229817547,64.4768962 L4.22185326,120.93947 C4.58540528,128.019468 10.4491475,133.563482 17.5700761,133.563482 L83.4105194,133.563482 C90.531448,133.563482 96.3951902,128.019468 96.7563967,120.981488 L100.851634,62.516066 C100.896199,61.6803788 100.588939,60.8493603 100.009601,60.2424366 C99.5334651,59.7312202 98.8720349,59.4370956 98.1848043,59.3437228 Z M74.5117042,33.0545915 C75.440521,31.3295278 76.4537756,29.1912891 77.5256677,26.9246627 C81.0509495,19.4735078 85.8826731,9.27018755 91.4719922,6.39897183 C94.0051289,5.10108895 96.1700225,5.38120756 98.0229651,7.27200815 C100.115148,9.40557821 101.144821,12.9257354 101.083839,15.2974062 C100.724977,29.0979162 98.1918408,43.622066 93.552448,58.4683521 C93.3999907,58.9562254 93.0622391,59.9413091 92.5814123,61.2928814 L88.5846856,63.0599629 C88.4979022,63.0996464 88.4134643,63.1416642 88.3313719,63.1930193 C87.2008424,63.8676383 85.8944006,64.2014463 84.5879589,64.2154522 C83.2815171,64.2014463 81.9774208,63.8676383 80.8468913,63.1930193 L79.174552,62.1939296 C77.291118,61.0711208 75.1356064,60.4758688 72.9402213,60.4758688 C72.3468106,60.4758688 71.7580908,60.5272239 71.1764076,60.6135938 C69.5509783,60.8213484 67.9654224,61.3489051 66.5487422,62.1962639 L64.8787484,63.1953536 C63.9663502,63.7392506 62.931986,64.0053632 61.8835489,64.119745 C61.9351498,63.9446709 61.9937873,63.7719311 62.0453882,63.5968569 C62.6950908,61.3932572 63.3963944,59.2200037 64.1281894,57.0654248 C64.3955761,56.276424 64.6746902,55.4944262 64.9561498,54.7124285 C65.5683245,52.9990363 66.2086452,51.3043188 66.8700753,49.6259414 C67.1538804,48.9093047 67.4259581,48.1833306 67.7191452,47.4736968 C69.7644185,42.4945886 72.023132,37.6742142 74.5117042,33.0545915 Z M47.4118331,60.6719518 C47.1538284,60.7163039 46.8981693,60.7629904 46.6448556,60.8236827 C45.8708416,60.9940882 45.1109006,61.2251861 44.3814511,61.5449881 L43.9311157,59.4954537 C44.6066188,59.5514774 45.2797764,59.6075011 45.9107151,59.6075011 C50.0012616,59.6075011 53.2943393,58.3959881 57.0799713,55.7161868 C58.2714837,54.8711623 59.3269573,54.2315582 60.33083,53.7016672 C60.1150443,54.3109251 59.901604,54.9178488 59.6928548,55.5294411 C59.542743,55.9682936 59.3809037,56.4001431 59.2354829,56.8413299 C58.5459068,58.9188762 57.8891677,61.0127628 57.276993,63.1253239 L55.7172376,62.1962639 C53.8338036,61.0734552 51.6782919,60.4782031 49.4829068,60.4782031 C48.9152966,60.4782031 48.3547228,60.5318925 47.7964946,60.6112595 C47.6698377,60.6252654 47.5408354,60.6532772 47.4118331,60.6719518 Z M43.6848385,29.1212595 C43.1594472,29.2286383 42.6387469,28.87849 42.530854,28.3836138 C42.4182702,27.8723973 42.7583672,27.3471749 43.2720311,27.2351275 L56.4302686,24.394258 C56.885295,24.394258 57.2840295,24.71406 57.3801949,25.1529125 C57.4552508,25.4890549 57.3285939,25.7528332 57.2441561,25.8812209 C57.1620637,26.0072743 56.9767694,26.2290348 56.6390179,26.3037331 L43.6848385,29.1212595 Z M44.6089643,38.5892683 C44.8833874,38.2391201 45.1507741,37.8983091 45.4087787,37.5574981 C45.594073,37.3123944 45.7559123,37.0579533 45.8919511,36.8035122 C46.4689433,35.7227213 46.6049821,34.5112083 46.3375955,33.3230385 L56.1276995,31.1941371 C56.1933734,31.4929303 56.2637384,31.7893892 56.3763222,32.0648391 C56.8149301,33.1339585 57.5983261,34.0233351 58.6889821,34.6442646 C59.0454977,34.8403477 59.4184317,35.0364307 59.8030932,35.2395167 C60.1197352,35.4052535 60.4363773,35.5779933 60.7553649,35.7507331 C60.9078222,35.8324344 61.062625,35.9141357 61.2150823,35.9981712 C61.4941964,36.1545708 61.7639286,36.3273106 62.0360062,36.4977161 C62.2682104,36.6401097 62.4980691,36.787172 62.7232368,36.9435715 C62.983587,37.1233143 63.2322096,37.3217317 63.4808323,37.5224833 C63.6989635,37.6998918 63.9077127,37.8936405 64.1141165,38.0920578 C64.3369387,38.3091497 64.5574154,38.5309103 64.7614736,38.7736798 C65.1226801,39.203195 65.4698137,39.6490504 65.7536188,40.1836101 C64.7591281,42.3685352 63.8232748,44.5978125 62.917913,46.8457643 C62.7771832,47.1935782 62.6270714,47.5320549 62.4886871,47.8798688 C59.9180225,48.5288102 57.4341413,49.7426575 54.3662314,51.915911 C50.5008525,54.6494018 47.6229278,55.3753758 42.8803331,54.6914196 L41.4566165,48.2043395 C40.4902717,43.8158147 42.5848005,41.1593566 44.6089643,38.5892683 Z M30.7212772,96.6321779 C32.0159915,96.6321779 33.0667741,97.6756197 33.0667741,98.9664996 C33.0667741,100.25738 32.0159915,101.300821 30.7212772,101.300821 L14.3027989,101.300821 C13.0080846,101.300821 11.957302,100.25738 11.957302,98.9664996 C11.957302,97.6756197 13.0080846,96.6321779 14.3027989,96.6321779 L30.7212772,96.6321779 Z M14.3027989,105.969465 L35.412271,105.969465 C36.7069852,105.969465 37.7577679,107.012907 37.7577679,108.303787 C37.7577679,109.594666 36.7069852,110.638108 35.412271,110.638108 L14.3027989,110.638108 C13.0080846,110.638108 11.957302,109.594666 11.957302,108.303787 C11.957302,107.012907 13.0080846,105.969465 14.3027989,105.969465 Z M20.6051491,36.3786657 L22.1414495,35.1181319 L21.1446134,33.4070741 C20.5207112,32.3332861 20.1899961,31.1194388 20.1899961,29.8915856 C20.1899961,26.1099844 23.1664317,23.0263454 26.9661366,22.8676116 L29.8135699,22.7485612 L29.1497943,19.9917272 C29.0372104,19.5295315 28.9809185,19.0743388 28.9809185,18.6424893 C28.9809185,15.6358829 31.3404884,13.1031438 34.3521064,12.8743803 L36.5193455,12.7109778 L36.5193455,10.3883277 C36.5873649,8.28977242 38.3253781,6.60205782 40.4527438,6.60205782 C41.6770932,6.60205782 42.554309,7.15762639 43.0726638,7.62449073 L44.7168571,9.10211638 L46.2930311,7.55212676 C47.0130986,6.84249296 47.9817888,6.49701334 49.0302259,6.62773536 C50.2874123,6.77479763 51.4226328,7.75054411 51.7885303,9.00407487 C51.9128416,9.42425278 51.9480241,9.83042476 51.8987686,10.2435997 L51.6243455,12.8487027 L54.265375,12.8487027 C57.635854,12.8487027 60.4551413,15.470146 60.6873455,18.8175634 L60.7928929,20.3512128 L62.2494464,20.8600949 C65.9154581,22.1416375 68.3266289,25.5940993 68.2445365,29.4574018 C68.209354,31.1077672 67.6745807,32.6974403 66.7058905,34.0910304 C65.1367531,32.7651357 63.4456498,31.8710904 62.0242787,31.1264418 C61.6560357,30.9326931 61.2995202,30.7459474 60.9406592,30.54753 C60.8398028,30.4915063 60.717837,30.3934648 60.675618,30.148361 C60.6193261,29.8122187 60.7459829,29.408381 61.0016421,29.1119222 C62.0242787,27.9307554 62.4347407,26.3200734 62.1040256,24.8004299 L61.8202205,23.5142187 C61.2455738,20.897444 58.4989969,19.1303625 55.8696949,19.7162772 L55.2434472,19.8516679 C55.2364107,19.8540022 55.2293742,19.8516679 55.2246832,19.8540022 L48.3406498,21.3526368 L41.6231467,22.8115878 C38.9305163,23.3975026 37.2183036,26.0539607 37.8093688,28.7360964 L37.9500986,29.3710319 L37.9500986,29.3780348 C37.9500986,29.3803692 37.9524441,29.3827035 37.9524441,29.3873721 L38.0908284,30.0199733 C38.4309255,31.5746316 39.5168905,32.8841861 40.9922081,33.5144529 C41.3581056,33.6708525 41.6630202,33.9673113 41.7685675,34.2684388 C41.8295505,34.4411787 41.794368,34.5298829 41.6583292,34.7539778 C41.4237795,35.0644426 41.1751568,35.3819103 40.9194977,35.7040467 C40.6591475,36.0331861 40.3894154,36.381 40.1173377,36.7381512 C40.0328998,36.8478643 39.953153,36.9622461 39.8687151,37.0742936 C39.6670023,37.3450749 39.4676351,37.6251935 39.2659224,37.9146494 C39.165066,38.0617116 39.0665551,38.2134426 38.9656988,38.3651735 C38.7850955,38.6429577 38.6091832,38.927745 38.437962,39.2242039 C38.3417966,39.3899407 38.2479767,39.5533432 38.1541568,39.7237487 C37.9758991,40.0528881 37.8140598,40.400702 37.6569115,40.7531846 C37.5912376,40.9002468 37.5208727,41.0403062 37.4598898,41.1920371 C37.253486,41.7032535 37.0705373,42.2354789 36.922771,42.7957161 C36.9016615,42.8797517 36.8922795,42.9707902 36.87117,43.0571601 C36.7562407,43.5380304 36.6671118,44.0329066 36.6061289,44.5534603 C36.5826739,44.7588807 36.5779829,44.9736383 36.5639099,45.1860615 C36.545146,45.4615115 36.5099635,45.7252898 36.5099635,46.0124114 C36.4419441,45.9237072 36.3762702,45.8490089 36.3082508,45.762639 C36.153448,45.5618873 35.9986452,45.3798102 35.8438424,45.1883958 C35.4967089,44.761215 35.1472298,44.355043 34.7977508,43.9745486 C34.6265295,43.7878028 34.4529627,43.6033914 34.2817415,43.4283173 C33.9134984,43.0548258 33.5405644,42.7116805 33.1699759,42.3895441 C33.0315916,42.2704937 32.8955528,42.1374374 32.7571685,42.0253899 C32.2622686,41.6238866 31.7626778,41.2690697 31.258396,40.9586049 C31.1059387,40.865232 30.9511359,40.7952024 30.7986786,40.7088325 C30.4351266,40.5057465 30.069229,40.3190007 29.700986,40.1626012 C29.4992733,40.0762313 29.2952151,40.001533 29.0911568,39.9315033 C28.7557508,39.8124529 28.4203447,39.7167457 28.0825932,39.6373788 C27.8785349,39.588358 27.6744767,39.5346686 27.4704185,39.4996538 C27.043538,39.4272898 26.6143121,39.3899407 26.1827407,39.3782691 C26.0842298,39.3759348 25.9857189,39.3502572 25.8872081,39.3502572 C23.4502368,39.3502572 21.2313967,40.2956575 19.2635248,41.5725315 C19.0477391,41.0449748 18.9351553,40.4777346 18.9351553,39.8918199 C18.9328098,38.528576 19.542639,37.2470334 20.6051491,36.3786657 Z M5.53533152,55.7605389 C6.52747671,53.9000845 8.93630202,52.4808169 13.118323,51.2903128 C15.0744674,50.7347443 16.889882,49.6959711 18.362854,48.2953781 C19.0172477,47.6721142 19.6364589,47.1328858 20.2345606,46.6496812 C20.7669884,46.2178317 21.2806522,45.8396716 21.775552,45.5152009 C21.794316,45.5035293 21.81308,45.4918577 21.8318439,45.4801861 C22.8122616,44.8452506 23.7223144,44.4227383 24.5737298,44.2056464 C24.6089123,44.1963091 24.6417492,44.1893062 24.6769317,44.1823032 C25.0944301,44.0842617 25.5002011,44.028238 25.8918991,44.028238 C28.8425342,44.028238 32.0066095,46.9578117 35.2973416,52.735258 C37.0212818,55.7628732 37.5959286,60.2330993 36.8477151,64.1314166 C36.6718028,64.1150764 36.5005815,64.0917331 36.3270148,64.0637213 C35.4849814,63.9026531 34.6687484,63.6342061 33.9369534,63.1976879 L32.2646141,62.1985982 C30.3811801,61.0757895 28.2256685,60.4805374 26.0302834,60.4805374 C25.4368727,60.4805374 24.848153,60.5318925 24.2664697,60.6182624 C22.6410404,60.826017 21.0554845,61.3535738 19.6388043,62.2009325 L18.8249169,62.6864715 C17.4340373,63.5151557 15.8320629,63.9329993 14.2253975,63.9470052 C12.6187321,63.9329993 11.0144123,63.51749 9.62587811,62.6864715 L6.46649379,60.7980052 C6.05603183,60.5552357 5.60804193,60.3848302 5.14363354,60.2984603 C4.77069953,58.4450089 4.90204736,56.951043 5.53533152,55.7605389 Z M40.1032648,119.975395 L14.3027989,119.975395 C13.0080846,119.975395 11.957302,118.931953 11.957302,117.641073 C11.957302,116.350193 13.0080846,115.306752 14.3027989,115.306752 L40.1032648,115.306752 C41.397979,115.306752 42.4487616,116.350193 42.4487616,117.641073 C42.4487616,118.931953 41.397979,119.975395 40.1032648,119.975395 Z M54.1762461,119.975395 L49.4852523,119.975395 C48.190538,119.975395 47.1397554,118.931953 47.1397554,117.641073 C47.1397554,116.350193 48.190538,115.306752 49.4852523,115.306752 L54.1762461,115.306752 C55.4709604,115.306752 56.521743,116.350193 56.521743,117.641073 C56.521743,118.931953 55.4709604,119.975395 54.1762461,119.975395 Z" id="Shape"></path>
            </g>
        </g>
    </g>
</svg>