<?xml version="1.0" encoding="UTF-8"?>
<svg width="258px" height="411px" viewBox="0 0 258 411" version="1.1" xmlns="http://www.w3.org/2000/svg" xmlns:xlink="http://www.w3.org/1999/xlink">
    <!-- Generator: Sketch 42 (36781) - http://www.bohemiancoding.com/sketch -->
    <title>schlitten</title>
    <desc>Created with Sketch.</desc>
    <defs>
        <linearGradient x1="50%" y1="0%" x2="50%" y2="96.8431122%" id="linearGradient-1">
            <stop stop-color="#FFC800" offset="0%"></stop>
            <stop stop-color="#FFEA00" offset="100%"></stop>
        </linearGradient>
    </defs>
    <g id="Page-1" stroke="none" stroke-width="1" fill="none" fill-rule="evenodd">
        <g id="marker" style="mix-blend-mode: darken;" transform="translate(0.000000, 1.000000)">
            <path d="M129,8.92683619e-15 C85.0153526,-0.0144661149 44.1040742,22.5558026 20.6584542,59.7707501 C-2.78716574,96.9856976 -5.48274559,143.632065 13.52,183.3 C13.99,184.25 129,409.61 129,409.61 L243.07,186.11 C263.284943,146.426666 261.420211,99.0885754 238.146356,61.1183429 C214.872501,23.1481105 173.535501,0.00454741792 129,0.01 L129,0.01 L129,8.92683619e-15 Z" id="Shape" fill="url(#linearGradient-1)"></path>
            <circle id="Oval" stroke="#FFFFFF" stroke-width="11" cx="128.75" cy="125.15" r="95.44"></circle>
        </g>
        <g id="cheese-triangular-piece-with-holes" transform="translate(59.000000, 60.000000)" fill-rule="nonzero" fill="#FFFFFF">
            <g id="Capa_1">
                <g id="Group">
                    <path d="M3.95612903,47.1828738 L90.9533333,61.0390166 C90.2838172,59.6482326 89.8736022,58.1027442 89.8736022,56.4456977 C89.8736022,50.7060897 94.3754301,46.0564086 99.9344086,46.0564086 C105.492258,46.0564086 109.995215,50.7060897 109.995215,56.4456977 C109.995215,59.2338738 108.918495,61.7542326 107.18543,63.6235116 L135.558763,68.1410332 C138.852527,68.6661728 140.312742,66.5943787 138.817903,63.5131196 L125.494946,35.9800266 C123.924839,37.0244751 122.060806,37.6475681 120.053387,37.6475681 C114.495538,37.6475681 109.995215,32.9955548 109.995215,27.2563355 C109.995215,22.7897342 112.738763,19.0107508 116.571075,17.5465017 L110.011774,4.00987375 C108.523333,0.931335548 104.825376,-0.478495017 101.754785,0.864089701 L87.3577419,7.15604651 C89.2853763,9.88436213 90.4343548,13.2318837 90.4343548,16.8658804 C90.4343548,25.9860498 83.278172,33.3768738 74.4434946,33.3768738 C66.5489247,33.3768738 60.0050538,27.4600166 58.7108065,19.6855415 L3.54892473,43.8003688 C0.48172043,45.1445083 0.661989247,46.6569568 3.95612903,47.1828738 Z M47.2917742,34.2895515 C49.1294624,34.2895515 50.6179032,35.8249336 50.6179032,37.7229767 C50.6179032,39.6210199 49.1294624,41.156402 47.2917742,41.156402 C45.4578495,41.156402 43.9675269,39.6214086 43.9675269,37.7229767 C43.9679032,35.8249336 45.4578495,34.2895515 47.2917742,34.2895515 Z" id="Shape"></path>
                    <path d="M11.4009677,71.3140266 C17.8033333,71.3140266 22.9919892,76.6754252 22.9919892,83.2880631 C22.9919892,89.8944817 17.802957,95.25899 11.4009677,95.25899 C8.97580645,95.25899 6.72715054,94.4866346 4.86612903,93.170093 L6.01322581,103.416728 C6.39709677,106.84199 9.40446237,109.776708 12.7343548,109.976113 L83.8724194,114.312887 C83.846828,114.019804 83.7862366,113.739159 83.7862366,113.442189 C83.7862366,107.750003 88.2485484,103.142691 93.7567204,103.142691 C99.2675269,103.142691 103.72871,107.750392 103.72871,113.442189 C103.72871,114.147688 103.656452,114.839581 103.529624,115.507375 L125.76629,116.862399 C129.094677,117.062193 132.292097,114.485472 132.908925,111.09908 L139.845323,72.8933322 L0,49.6962359 L2.85946237,75.2173953 C4.97865591,72.8249203 8.015,71.3140266 11.4009677,71.3140266 Z M50.9761828,71.5709601 C54.846129,71.5709601 57.9806989,74.8092558 57.9806989,78.809412 C57.9806989,82.8080133 54.8431183,86.0466977 50.9761828,86.0466977 C47.1024731,86.0466977 43.9675269,82.8080133 43.9675269,78.809412 C43.9679032,74.8092558 47.1024731,71.5709601 50.9761828,71.5709601 Z M36.9592473,91.8286744 C38.7976882,91.8286744 40.2876344,93.3628904 40.2876344,95.2605449 C40.2876344,97.1593654 38.7976882,98.6935814 36.9592473,98.6935814 C35.1260753,98.6935814 33.6357527,97.1593654 33.6357527,95.2605449 C33.6357527,93.3628904 35.1260753,91.8286744 36.9592473,91.8286744 Z" id="Shape"></path>
                </g>
            </g>
        </g>
    </g>
</svg>