<?xml version="1.0" encoding="UTF-8" standalone="no"?>
<svg width="258px" height="411px" viewBox="0 0 258 411" version="1.1" xmlns="http://www.w3.org/2000/svg" xmlns:xlink="http://www.w3.org/1999/xlink">
    <!-- Generator: Sketch 41.2 (35397) - http://www.bohemiancoding.com/sketch -->
    <title>schlitten</title>
    <desc>Created with Sketch.</desc>
    <defs>
        <linearGradient x1="50.0051814%" y1="99.9975587%" x2="50.0051814%" y2="1.69666394e-06%" id="linearGradient-1">
            <stop stop-color="#2E265F" offset="0%"></stop>
            <stop stop-color="#3B7AE1" offset="100%"></stop>
        </linearGradient>
    </defs>
    <g id="Page-1" stroke="none" stroke-width="1" fill="none" fill-rule="evenodd">
        <g id="tanzen" transform="translate(0.000000, 1.000000)">
            <path d="M129,8.92683619e-15 C85.0153526,-0.0144661149 44.1040742,22.5558026 20.6584542,59.7707501 C-2.78716574,96.9856976 -5.48274559,143.632065 13.52,183.3 C13.99,184.25 129,409.61 129,409.61 L243.07,186.11 C263.284943,146.426666 261.420211,99.0885754 238.146356,61.1183429 C214.872501,23.1481105 173.535501,0.00454741792 129,0.01 L129,0.01 L129,8.92683619e-15 Z" id="Shape" fill="url(#linearGradient-1)"></path>
            <circle id="Oval" stroke="#FFFFFF" stroke-width="11" cx="126.75" cy="125.15" r="95.44"></circle>
        </g>
        <g id="christmas-sled" transform="translate(58.000000, 100.000000)" stroke-width="4" stroke="#FFFFFF" fill="#FFFFFF">
            <g id="Capa_1">
                <path d="M138.937101,12.4990459 C137.429034,12.4990459 136.206332,13.6778796 136.206332,15.1318403 C136.206332,29.6638776 123.943812,41.4867697 108.870649,41.4867697 L98.3008654,41.4867697 L98.3008654,5.52148276 L111.96188,5.52148276 C113.469947,5.52148276 114.692649,4.3426491 114.692649,2.88868843 C114.692649,1.43472777 113.469947,0.255894106 111.96188,0.255894106 L95.5700962,0.255894106 L19.1218702,0.255894106 L2.73076923,0.255894106 C1.22270192,0.255894106 0,1.43472777 0,2.88868843 C0,4.3426491 1.22270192,5.52148276 2.73076923,5.52148276 L16.391101,5.52148276 L16.391101,41.4864406 L6.98496635,41.4864406 C5.47689904,41.4864406 4.25419712,42.6649451 4.25419712,44.1192349 C4.25419712,45.5735247 5.47689904,46.7520292 6.98496635,46.7520292 L19.1218702,46.7520292 L95.5700962,46.7520292 L108.870649,46.7520292 C126.955168,46.7520292 141.66787,32.5665334 141.66787,15.1315112 C141.66787,13.6778796 140.445168,12.4990459 138.937101,12.4990459 Z M21.8526394,42.057018 L21.8526394,9.98691309 L92.8393269,9.98691309 L92.8393269,42.0567245 L21.8526394,42.057018 L21.8526394,42.057018 Z" id="Shape"></path>
            </g>
        </g>
    </g>
</svg>